[Header]
FileType HTR
DataType HTRS
FileVersion 1
NumSegments 22
NumFrames 7
DataFrameRate 24
EulerRotationOrder ZYX
CalibrationUnits mm
RotationUnits Degrees
GlobalAxisofGravity Y
BoneLengthAxis Y
ScaleFactor 1.0
[SegmentNames&Hierarchy]
reference	GLOBAL
Hips	reference
Spine	Hips
Spine1	Spine
Neck	Spine1
Head	Neck
LeftShoulder	Spine1
LeftArm	LeftShoulder
LeftForeArm	LeftArm
LeftHand	LeftForeArm
RightShoulder	Spine1
RightArm	RightShoulder
RightForeArm	RightArm
RightHand	RightForeArm
LeftUpLeg	Hips
LeftLeg	LeftUpLeg
LeftFoot	LeftLeg
LeftToeBase	LeftFoot
RightUpLeg	Hips
RightLeg	RightUpLeg
RightFoot	RightLeg
RightToeBase	RightFoot
[BasePosition]
reference	0	0	0	0	0	0	1
Hips	0	0	0	0	0	0	1
Spine	0	0	0	0	-0	90	1
Spine1	0	0	0	0	0	0	1
Neck	0	0	0	-7.352327771	-7.352327771	90	1
Head	0	0	0	0	-0	90	1
LeftShoulder	0	0	0	0	0	0	1
LeftArm	0	0	0	0	0	0	1
LeftForeArm	0	0	0	0	0	0	1
LeftHand	0	0	0	0	0	0	1
RightShoulder	0	0	0	0	-0	180	1
RightArm	0	0	0	0	-0	180	1
RightForeArm	0	0	0	0	-0	180	1
RightHand	0	0	0	0	-0	180	1
LeftUpLeg	0	0	0	0	-0	-90	1
LeftLeg	0	0	0	0	-0	-90	1
LeftFoot	0	0	0	66.57146043	-66.57146043	-90	1
LeftToeBase	0	0	0	0	-90	0	1
RightUpLeg	0	0	0	0	-0	-90	1
RightLeg	0	0	0	0	-0	-90	1
RightFoot	0	0	0	66.57146043	-66.57146043	-90	1
RightToeBase	0	0	0	0	-90	0	1
[reference]
11	0	0	0	0	-0	0	1.0
12	0	0	0	0	-0	0	1.0
13	0	0	0	0	-0	0	1.0
14	0	0	0	0	-0	0	1.0
15	0	0	0	0	-0	0	1.0
16	0	0	0	0	-0	0	1.0
17	0	0	0	0	-0	0	1.0
[Hips]
11	2.609579802	8.582590103	-4.761512756	-12.74949074	-101.1389389	14.55836296	1.0
12	2.609579802	8.582590103	-4.753827572	-12.89334774	-100.8871231	14.90204811	1.0
13	2.609579802	8.582590103	-4.746072769	-12.41143799	-100.566452	14.83358765	1.0
14	2.624854803	8.582590103	-4.738238335	-12.10761547	-100.1055222	14.81993198	1.0
15	2.655036926	8.582590103	-4.730313778	-12.11776638	-99.32674408	15.18747044	1.0
16	2.684235096	8.582590103	-4.712669373	-11.70032692	-98.36344147	15.29933548	1.0
17	2.703776836	8.582590103	-4.665787697	-10.43688107	-97.12703705	15.47294331	1.0
[Spine]
11	0	0.7457100153	0	-11.16574669	1.065878153	-87.69487	1.0
12	0	0.7457100153	0	-11.05716324	0.9728302956	-87.73776245	1.0
13	0	0.7457100153	0	-10.99034977	0.9518771172	-87.7204361	1.0
14	0	0.7457100153	0	-10.62876987	0.9857364893	-87.52818298	1.0
15	0	0.7457100153	0	-10.24822998	1.135448456	-87.52640533	1.0
16	0	0.7457100153	0	-9.397642136	1.137699127	-86.95833588	1.0
17	0	0.7457100153	0	-9.243736267	1.227457166	-87.03333282	1.0
[Spine1]
11	0	2.140589952	0	12.20331478	0.1370167881	1.242377281	1.0
12	0	2.140589952	0	12.17474556	0.1055328622	1.312763691	1.0
13	0	2.140589952	0	12.15059662	0.1146008596	1.207761168	1.0
14	0	2.140589952	0	12.05021191	0.1744790524	0.7664468884	1.0
15	0	2.140589952	0	11.65619183	0.2279790342	0.3844430745	1.0
16	0	2.140589952	0	10.88873291	0.3338627815	-0.1184366792	1.0
17	0	2.140589952	0	9.862030029	0.3534858227	-0.2724855244	1.0
[Neck]
11	0	2.32246995	0	-12.72427654	9.888480186	-90.56703186	1.0
12	0	2.32246995	0	-13.18835258	9.887775421	-90.72099304	1.0
13	0	2.32246995	0	-14.20956326	9.756718636	-91.09197235	1.0
14	0	2.32246995	0	-15.22805214	9.612893105	-91.31124115	1.0
15	0	2.32246995	0	-15.80703354	9.109701157	-91.90244293	1.0
16	0	2.32246995	0	-16.6732769	8.505079269	-92.62898254	1.0
17	0	2.32246995	0	-17.38845825	8.09779644	-93.2596283	1.0
[Head]
11	0	1.409579992	0.1818799973	-2.922307014	2.930859566	-92.54678345	1.0
12	0	1.409579992	0.1818799973	-2.859887362	2.947183609	-92.58206177	1.0
13	0	1.409579992	0.1818799973	-2.528982639	2.842931032	-92.49259949	1.0
14	0	1.409579992	0.1818799973	-2.563557863	2.703897476	-92.33785248	1.0
15	0	1.409579992	0.1818799973	-3.33074975	2.17876339	-91.99563599	1.0
16	0	1.409579992	0.1818799973	-3.635547161	1.598479748	-91.79023743	1.0
17	0	1.409579992	0.1818799973	-3.599312544	1.259431958	-91.89785767	1.0
[LeftShoulder]
11	0.3668199778	1.946700096	-0.02662999928	-14.68822479	-13.08238888	-4.191774845	1.0
12	0.3668199778	1.946700096	-0.02662999928	-14.44479752	-13.1299324	-4.252113819	1.0
13	0.3668199778	1.946700096	-0.02662999928	-14.10928535	-12.87988663	-4.29808712	1.0
14	0.3668199778	1.946700096	-0.02662999928	-13.45894241	-12.53008842	-4.116939068	1.0
15	0.3668199778	1.946700096	-0.02662999928	-13.10309792	-12.26525021	-3.970757484	1.0
16	0.3668199778	1.946700096	-0.02662999928	-13.36151314	-11.90689659	-3.330369949	1.0
17	0.3668199778	1.946700096	-0.02662999928	-14.41404343	-11.59883595	-2.661490917	1.0
[LeftArm]
11	1.140689969	0	0	40.78520203	16.94177628	-75.78999329	1.0
12	1.140689969	0	0	38.97167969	17.67264938	-75.44361115	1.0
13	1.140689969	0	0	36.43481064	18.48346329	-74.42433167	1.0
14	1.140689969	0	0	33.65078735	19.19564056	-73.00727081	1.0
15	1.140689969	0	0	31.11037445	20.23402214	-71.0746994	1.0
16	1.140689969	0	0	29.85073853	21.32095337	-69.45146179	1.0
17	1.140689969	0	0	30.31291008	22.10469627	-68.0716629	1.0
[LeftForeArm]
11	2.749800205	0	0	-15.47873402	-15.84408092	3.346936941	1.0
12	2.749800205	0	0	-15.53719521	-19.66613388	5.103209496	1.0
13	2.749800205	0	0	-15.19590187	-26.75303841	7.284508228	1.0
14	2.749800205	0	0	-16.00283241	-37.14218903	11.10743618	1.0
15	2.749800205	0	0	-20.31959534	-51.37098694	17.76397133	1.0
16	2.749800205	0	0	-36.56063461	-67.41268921	36.68736267	1.0
17	2.749800205	0	0	-95.44238281	-74.33860016	98.48763275	1.0
[LeftHand]
11	2.295179844	0	0	-14.82478046	-6.9787817	-3.090312719	1.0
12	2.295179844	0	0	-14.52586746	-8.435642242	-1.713006377	1.0
13	2.295179844	0	0	-13.42847443	-11.03398418	-0.3452755511	1.0
14	2.295179844	0	0	-12.20479202	-14.31829071	-0.4308611453	1.0
15	2.295179844	0	0	-11.65060329	-16.78124237	-0.4641083181	1.0
16	2.295179844	0	0	-11.56798744	-18.07205582	-0.5152662992	1.0
17	2.295179844	0	0	-12.7663517	-17.88415527	0.1127955914	1.0
[RightShoulder]
11	-0.3601199985	1.946700096	-0.02662999928	-5.771978855	3.345865488	177.1280975	1.0
12	-0.3601199985	1.946700096	-0.02662999928	-5.504703522	3.199782848	177.0749512	1.0
13	-0.3601199985	1.946700096	-0.02662999928	-5.469334602	3.144637108	176.9306488	1.0
14	-0.3601199985	1.946700096	-0.02662999928	-5.239654541	3.100385904	177.0778198	1.0
15	-0.3601199985	1.946700096	-0.02662999928	-4.540533066	3.17267561	177.049118	1.0
16	-0.3601199985	1.946700096	-0.02662999928	-3.990720034	3.059398651	177.0513306	1.0
17	-0.3601199985	1.946700096	-0.02662999928	-3.778010368	3.046864271	176.7292633	1.0
[RightArm]
11	-1.140689969	0	0	49.99728394	-1.209209085	-98.99846649	1.0
12	-1.140689969	0	0	49.01318741	-1.235277772	-99.3061676	1.0
13	-1.140689969	0	0	47.24362946	-1.834700346	-99.76083374	1.0
14	-1.140689969	0	0	45.74967575	-2.622365236	-100.8151855	1.0
15	-1.140689969	0	0	43.39793015	-3.383631945	-102.4402466	1.0
16	-1.140689969	0	0	42.11345673	-4.494539261	-104.5579147	1.0
17	-1.140689969	0	0	41.76023483	-5.554480076	-106.6704865	1.0
[RightForeArm]
11	-2.749800205	0	0	-1.662104011	16.24700546	176.8100739	1.0
12	-2.749800205	0	0	-2.045250893	18.64228439	175.8261871	1.0
13	-2.749800205	0	0	-3.090098619	23.38111496	173.598114	1.0
14	-2.749800205	0	0	-4.75332737	31.10515213	169.6419983	1.0
15	-2.749800205	0	0	-7.862867355	42.56695557	163.8578796	1.0
16	-2.749800205	0	0	-17.54775429	56.93764114	149.8019257	1.0
17	-2.749800205	0	0	-48.57357788	67.84151459	114.8190308	1.0
[RightHand]
11	-2.295179844	0	0	-1.620233536	9.444774628	174.9996033	1.0
12	-2.295179844	0	0	-1.921103716	10.47285461	173.9146423	1.0
13	-2.295179844	0	0	-2.601364136	11.81826401	171.9236298	1.0
14	-2.295179844	0	0	-3.140144348	14.13964939	169.7978973	1.0
15	-2.295179844	0	0	-3.300861359	15.60404873	167.5976563	1.0
16	-2.295179844	0	0	-3.059230089	16.74023438	166.2016296	1.0
17	-2.295179844	0	0	-3.979855061	16.9183712	167.0166321	1.0
[LeftUpLeg]
11	0.9094099998	0	0	6.382144928	2.81581831	96.48361206	1.0
12	0.9094099998	0	0	5.681966782	2.876830101	96.57896423	1.0
13	0.9094099998	0	0	4.279498577	2.606112719	96.53076935	1.0
14	0.9094099998	0	0	2.501783371	2.51044488	96.48614502	1.0
15	0.9094099998	0	0	-0.8931093216	2.408380985	96.50758362	1.0
16	0.9094099998	0	0	-4.497290611	2.005996227	97.66571808	1.0
17	0.9094099998	0	0	-9.500756264	3.283484936	98.31719208	1.0
[LeftLeg]
11	0	-4.498080254	0	2.093223572	0.07163662463	89.08396149	1.0
12	0	-4.498080254	0	3.006157398	-0.5253732204	88.87936401	1.0
13	0	-4.498080254	0	4.766299248	-1.041506648	88.46656799	1.0
14	0	-4.498080254	0	7.667625427	-0.7696622014	88.09544373	1.0
15	0	-4.498080254	0	12.6632328	-0.1960121989	87.1590271	1.0
16	0	-4.498080254	0	19.02737427	0.3169875145	84.87042236	1.0
17	0	-4.498080254	0	26.11014175	0.3093004823	82.34313202	1.0
[LeftFoot]
11	0	-3.729400158	0	-69.09724426	108.1192169	-20.64570427	1.0
12	0	-3.729400158	0	-69.20824432	108.2587967	-20.2436409	1.0
13	0	-3.729400158	0	-68.42876434	108.6949539	-18.60887146	1.0
14	0	-3.729400158	0	-68.64917755	108.0474167	-17.96295738	1.0
15	0	-3.729400158	0	-68.79894257	106.3436203	-16.88202858	1.0
16	0	-3.729400158	0	-67.82920837	104.1807098	-14.68773079	1.0
17	0	-3.729400158	0	-67.29699707	101.8369064	-14.15539551	1.0
[LeftToeBase]
11	0	-0.5911099911	1.364109993	0	0	0	1.0
12	0	-0.5911099911	1.364109993	0	0	0	1.0
13	0	-0.5911099911	1.364109993	0	0	0	1.0
14	0	-0.5911099911	1.364109993	0	0	0	1.0
15	0	-0.5911099911	1.364109993	0	0	0	1.0
16	0	-0.5911099911	1.364109993	0	0	0	1.0
17	0	-0.5911099911	1.364109993	0	0	0	1.0
[RightUpLeg]
11	-0.9094099998	0	0	2.796147108	-2.029083729	92.40310669	1.0
12	-0.9094099998	0	0	2.375438929	-2.286345482	92.39765167	1.0
13	-0.9094099998	0	0	1.526886106	-2.947232008	92.25125122	1.0
14	-0.9094099998	0	0	0.8555238843	-4.06536293	92.00050354	1.0
15	-0.9094099998	0	0	-0.5920548439	-4.877670765	91.41667175	1.0
16	-0.9094099998	0	0	-1.17401433	-5.706327915	91.22125244	1.0
17	-0.9094099998	0	0	-2.825561523	-6.342444897	90.65228271	1.0
[RightLeg]
11	0	-4.498080254	0	3.889735222	-1.10543561	90.61030579	1.0
12	0	-4.498080254	0	4.290259838	-0.8529156446	90.60860443	1.0
13	0	-4.498080254	0	5.041037083	-0.7109107971	90.58033752	1.0
14	0	-4.498080254	0	5.751797676	-0.3807017207	90.65174866	1.0
15	0	-4.498080254	0	6.751607895	0.05733016506	90.94512939	1.0
16	0	-4.498080254	0	7.157615185	-0.03510440141	91.21976471	1.0
17	0	-4.498080254	0	7.572670937	-0.5086141229	91.33530426	1.0
[RightFoot]
11	0	-3.729400158	0	50.11597443	63.98216629	92.02655792	1.0
12	0	-3.729400158	0	49.47573853	63.93141937	91.53253937	1.0
13	0	-3.729400158	0	50.07140732	63.55812836	92.33668518	1.0
14	0	-3.729400158	0	50.59037018	63.48414612	93.24952698	1.0
15	0	-3.729400158	0	49.80581665	63.24878693	93.12252808	1.0
16	0	-3.729400158	0	48.77511597	63.90364456	92.11054993	1.0
17	0	-3.729400158	0	47.93128967	64.09946442	92.412323	1.0
[RightToeBase]
11	0	-0.5911099911	1.364109993	0	0	0	1.0
12	0	-0.5911099911	1.364109993	0	0	0	1.0
13	0	-0.5911099911	1.364109993	0	0	0	1.0
14	0	-0.5911099911	1.364109993	0	0	0	1.0
15	0	-0.5911099911	1.364109993	0	0	0	1.0
16	0	-0.5911099911	1.364109993	0	0	0	1.0
17	0	-0.5911099911	1.364109993	0	0	0	1.0
[EndOfFile]
